<svg id="Layer_1" data-name="Layer 1" xmlns="http://www.w3.org/2000/svg" viewBox="0 0 49.54 64.16"><defs><style>.cls-1{fill:#754c24;}</style></defs><path class="cls-1" d="M455.14,224.73a3.23,3.23,0,0,1-1.91.69,4.51,4.51,0,0,1-1.42-.16,2.16,2.16,0,0,1-.76-.43,1.84,1.84,0,0,1-.59-1.42.72.72,0,0,1,.23-.62,1.71,1.71,0,0,0,1,.34,3.62,3.62,0,0,0,.79-.07,2.27,2.27,0,0,0,.69-.31,6.41,6.41,0,0,0,1.64-2.19q4.41-8.24,4.65-9.14a1.62,1.62,0,0,0,.06-.37c0-.74-.62-1.34-2-1.78a6.51,6.51,0,0,0,3.46-1.84,5.66,5.66,0,0,0,.69-1l4.92-8.9a7.85,7.85,0,0,0-2.93-.65,12,12,0,0,0-2.12.15,6.75,6.75,0,0,0-1.53.46,7,7,0,0,0-3.89,4.73,8.26,8.26,0,0,0-.38,2.39,2.63,2.63,0,0,0,.42,1.66,1.52,1.52,0,0,1-1,.38,2.33,2.33,0,0,1-.92-.19,2.14,2.14,0,0,1-.75-.57,3.08,3.08,0,0,1-.73-2.1,4.87,4.87,0,0,1,.33-2,2.07,2.07,0,0,1-1.08-1.8,2.64,2.64,0,0,1,.77-1.9,2.45,2.45,0,0,1-.64-1.49,3.19,3.19,0,0,1,.19-1.17,2.69,2.69,0,0,1,.55-.86,2.47,2.47,0,0,1,1.83-.77,2.13,2.13,0,0,1,1,.22,4.27,4.27,0,0,0-.08.87c0,.61.28.91.85.91a4.83,4.83,0,0,0,1.74-.49,12.49,12.49,0,0,1,5.19-1,11.38,11.38,0,0,1,5,1,4.1,4.1,0,0,1,2.64-1,4.43,4.43,0,0,1,2.47.67,2.7,2.7,0,0,1,1.69-.67,3.91,3.91,0,0,1,1.25.15,2.18,2.18,0,0,1,.72.44,1.88,1.88,0,0,1,.63,1.42.72.72,0,0,1-.23.62,1.94,1.94,0,0,0-1.08-.34,2.68,2.68,0,0,0-.92.13,2.1,2.1,0,0,0-.69.42,9.39,9.39,0,0,0-1.5,2.46q-3,6.18-3.2,6.92a3.85,3.85,0,0,0-.24,1.06c0,.74.48,1.28,1.44,1.61a6.45,6.45,0,0,0-2.75,1.3,8,8,0,0,0-1.95,2.55l-4.45,8.72a8.85,8.85,0,0,0,4.45,1,6.21,6.21,0,0,0,5.19-2.69,8.5,8.5,0,0,0,1.57-3.87,9.74,9.74,0,0,0,.09-1.45,2.11,2.11,0,0,0-.43-1.38,1.52,1.52,0,0,1,1-.38,2.17,2.17,0,0,1,.92.2,2.27,2.27,0,0,1,.77.59,3,3,0,0,1,.71,2.05,5.15,5.15,0,0,1-.34,2,2.06,2.06,0,0,1,1.09,1.8,2.52,2.52,0,0,1-.79,1.88,2.46,2.46,0,0,1,.67,1.5,3.25,3.25,0,0,1-.19,1.15,2.89,2.89,0,0,1-.54.87,2.52,2.52,0,0,1-1.84.77,2.23,2.23,0,0,1-1-.22,5.12,5.12,0,0,0,.08-.87c0-.61-.29-.91-.85-.91a4.63,4.63,0,0,0-1.74.49,12.52,12.52,0,0,1-5.19,1,15.61,15.61,0,0,1-5.22-.77,5.82,5.82,0,0,1-2.91.77A4.9,4.9,0,0,1,455.14,224.73Zm13.28-24.42c-.93.21-1.77,1.05-2.51,2.53l-1.9,3.7a21.68,21.68,0,0,1-1.11,2,2,2,0,0,1-.84.69,6.71,6.71,0,0,1-1.33.36,1.87,1.87,0,0,1,.69.48.81.81,0,0,1,.24.66,3.18,3.18,0,0,1-.17.71c-.09.25-.21.53-.36.85s-.33.7-.54,1.12l-1.54,3.1a6.56,6.56,0,0,0-.77,2.2,1.43,1.43,0,0,0,.36,1.13Z" transform="translate(-450.46 -193.84)"/><path class="cls-1" d="M493.56,256.93A19,19,0,0,1,487.4,258a15.16,15.16,0,0,1-5.33-.86,11.94,11.94,0,0,1-4-2.5,15,15,0,0,1-4.41-9.59,3.9,3.9,0,0,0-2.07-3.4,3.94,3.94,0,0,0,2.09-3.41,13.32,13.32,0,0,1,1.54-4.81,12.61,12.61,0,0,1,3.12-3.75,15,15,0,0,1,9.74-3.12,12,12,0,0,1,6.76,1.8,7,7,0,0,1,3.14,4.33,3.14,3.14,0,0,0,.83,1.86,2.54,2.54,0,0,0,.5.29c-.8,1.16-1.61,1.65-2.43,1.45a3.05,3.05,0,0,1-.56-.16,4.47,4.47,0,0,1-1.16,1.44,2.87,2.87,0,0,1-1.57.67c-.57,0-.93,0-1.08-.11a3.19,3.19,0,0,0,.51-1.86,1.59,1.59,0,0,0-.07-.36.39.39,0,0,1-.18,0h-.3a1.55,1.55,0,0,1-.63-.15,2.81,2.81,0,0,1-.75-.43,1.83,1.83,0,0,1-.81-1.31.85.85,0,0,1,.06-.31,2.48,2.48,0,0,0,2.39-.56,1.69,1.69,0,0,0,.73-1.38,2.17,2.17,0,0,0-.41-1.22,3.23,3.23,0,0,0-1.07-.84A8.57,8.57,0,0,0,488,229q-5.47,0-5.48,6.21v3.28a3.27,3.27,0,0,0,2.23,3.19,3.54,3.54,0,0,0-2.23,3.42v5.3a5.89,5.89,0,0,0,1,3.72,3.68,3.68,0,0,0,3.08,1.22,3.19,3.19,0,0,0,3.3-2.17,4.93,4.93,0,0,0,.26-1.65v-4.56a1.47,1.47,0,0,0-1.07-.38,1.82,1.82,0,0,0-1.14.34,1.18,1.18,0,0,1-.22-.83,1.66,1.66,0,0,1,.53-1.16,2.14,2.14,0,0,1,1.61-.54,2.76,2.76,0,0,1,1.79.57,4,4,0,0,1,2.08-.57,3.6,3.6,0,0,1,2,.59,2.81,2.81,0,0,1,1.6-.59,4,4,0,0,1,1.17.13,2.64,2.64,0,0,1,.75.38,1.59,1.59,0,0,1,.73,1.32,1,1,0,0,1-.22.7,2,2,0,0,0-1.2-.34c-.48,0-1,.45-1.41,1.35v6.48a1.6,1.6,0,0,0,1.68,1.23,1.51,1.51,0,0,0,.93-.34,1.12,1.12,0,0,1,.22.69,1.51,1.51,0,0,1-.91,1.33,5.42,5.42,0,0,1-2.6.51A5,5,0,0,1,493.56,256.93Zm-15.34-4.76a.43.43,0,0,0,.3-.42,3.73,3.73,0,0,0-.43-1.37,14.16,14.16,0,0,1-.78-3.19A34.54,34.54,0,0,1,477,242a25,25,0,0,1,1.19-8.2,2.83,2.83,0,0,0,.15-.76.32.32,0,0,0-.27-.33,8,8,0,0,0-1.35,2.31,27.74,27.74,0,0,0-1.2,5.68c0,.34-.44.66-1.19,1,.75.33,1.15.66,1.19,1q.74,6.14,1.84,8.19A8.6,8.6,0,0,0,478.22,252.17Zm14,1.18a2.69,2.69,0,0,0,1.17-2.51v-1.13a2.13,2.13,0,0,0-1.17-2.19Z" transform="translate(-450.46 -193.84)"/></svg>